<svg width="414" height="490" viewBox="0 0 414 490" fill="none" xmlns="http://www.w3.org/2000/svg">
<path opacity="0.35" fill-rule="evenodd" clip-rule="evenodd" d="M388.141 172.044C422.976 245.291 429.552 337.942 358.883 398.939C286.152 461.716 179.982 459.087 100.804 420.057C26.6698 383.514 -10.1594 307.609 11.5024 227.701C33.7489 145.637 106.764 74.4711 198.149 60.967C286.348 47.9335 354.869 102.084 388.141 172.044Z" fill="#8EC2F2"/>
<path opacity="0.4" fill-rule="evenodd" clip-rule="evenodd" d="M196.544 60.1379C277.606 57.3992 365.194 88.3134 392.953 177.444C421.522 269.174 376.777 365.491 309.411 422.538C246.338 475.952 162.043 479.46 97.4007 427.732C31.0136 374.607 -5.13509 279.27 18.9201 190.081C42.137 104 119.12 62.7538 196.544 60.1379Z" fill="#23A6F0"/>
</svg>
